PathFileType	4	(X/Y/Z)	/Users/itak/Documents/Research/Walk-IL/dataset/trc/00252_00009.trc
DataRate	CameraRate	NumFrames	NumMarkers	Units	OrigDataRate	OrigDataStartFrame	OrigNumFrames
100.000000	100.000000	4	53	mm	100.000000	0	482
Frame#	Time	RPSI			LPSI			L3			STRN			T10			C7			CLAV			RBAK			LBAK			LSHO			LUPA			LAEL			LAOL			LWTS			LWPS			LFRA			LIFD			LHPS			LHTS			RSHO			RUPA			RAEL			RAOL			RWTS			RWPS			RFRA			RIFD			RHTS			RHPS			RBHD			LFHD			RFHD			LBHD			LHIP			RHIP			RASI			LASI			LKNE			LTHI			LANK			LTIP			LTOE			LMT1			LMT5			LHEE			RKNE			RTHI			RANK			RTIP			RTOE			RMT1			RMT5			RHEE			
		X1	Y1	Z1	X2	Y2	Z2	X3	Y3	Z3	X4	Y4	Z4	X5	Y5	Z5	X6	Y6	Z6	X7	Y7	Z7	X8	Y8	Z8	X9	Y9	Z9	X10	Y10	Z10	X11	Y11	Z11	X12	Y12	Z12	X13	Y13	Z13	X14	Y14	Z14	X15	Y15	Z15	X16	Y16	Z16	X17	Y17	Z17	X18	Y18	Z18	X19	Y19	Z19	X20	Y20	Z20	X21	Y21	Z21	X22	Y22	Z22	X23	Y23	Z23	X24	Y24	Z24	X25	Y25	Z25	X26	Y26	Z26	X27	Y27	Z27	X28	Y28	Z28	X29	Y29	Z29	X30	Y30	Z30	X31	Y31	Z31	X32	Y32	Z32	X33	Y33	Z33	X34	Y34	Z34	X35	Y35	Z35	X36	Y36	Z36	X37	Y37	Z37	X38	Y38	Z38	X39	Y39	Z39	X40	Y40	Z40	X41	Y41	Z41	X42	Y42	Z42	X43	Y43	Z43	X44	Y44	Z44	X45	Y45	Z45	X46	Y46	Z46	X47	Y47	Z47	X48	Y48	Z48	X49	Y49	Z49	X50	Y50	Z50	X51	Y51	Z51	X52	Y52	Z52	X53	Y53	Z53	

1	0	-1632.408081054688	1060.15966796875	-374.6435241699219	-1614.639404296875	1064.4619140625	-493.3155822753906	-1623.525512695312	1134.470336914062	-454.5726318359375	-1379.883056640625	1331.127685546875	-421.8470458984375	-1629.884521484375	1258.941650390625	-453.039306640625	-1579.30615234375	1523.100708007812	-455.5318603515625	-1409.079345703125	1448.536499023438	-426.6339721679688	-1655.097900390625	1381.2919921875	-389.7038879394531	-1581.795654296875	1482.99951171875	-567.0101928710938	-1485.089111328125	1486.283935546875	-608.4862060546875	-1501.459594726562	1366.580078125	-688.8500366210938	-1481.067749023438	1156.564575195312	-712.3433837890625	-1559.165283203125	1140.656860351562	-675.762451171875	-1406.107788085938	918.2578735351562	-644.7784423828125	-1419.634399414062	904.9638061523438	-728.586669921875	-1458.710815429688	1049.456176757812	-723.7351684570312	-1411.902465820312	720.471435546875	-659.3214111328125	-1408.953735351562	815.4888305664062	-724.868896484375	-1353.685668945312	826.43115234375	-671.5794067382812	-1545.842407226562	1494.466674804688	-277.3907470703125	-1573.345703125	1432.62060546875	-211.0552520751953	-1593.391967773438	1151.4892578125	-165.3233337402344	-1612.984619140625	1142.63525390625	-257.9693298339844	-1448.12939453125	937.4494018554688	-188.3836975097656	-1509.427612304688	923.8796997070312	-128.6071624755859	-1567.558837890625	1083.61572265625	-147.555419921875	-1431.042358398438	743.9935913085938	-187.6450042724609	-1411.241333007812	818.026123046875	-166.0802459716797	-1469.412475585938	817.3471069335938	-122.3651428222656	-1567.911743164062	1673.928955078125	-427.6424255371094	-1350.970581054688	1741.495971679688	-443.4445495605469	-1388.286743164062	1739.391479492188	-351.2182312011719	-1477.857543945312	1687.5869140625	-534.5653076171875	-1498.648193359375	995.4796752929688	-618.4913330078125	-1549.359375	1015.685180664062	-253.1664123535156	-1449.07421875	1057.142944335938	-278.7272033691406	-1403.750244140625	1034.536865234375	-555.0321044921875	-1494.458129882812	508.0731506347656	-568.02978515625	-1485.054321289062	651.1221923828125	-600.5789794921875	-1567.48681640625	38.71315383911133	-553.7843627929688	-1539.969604492188	286.9561767578125	-574.2647094726562	-1356.659423828125	47.01052093505859	-486.8956909179688	-1427.038818359375	43.04311752319336	-447.3553466796875	-1439.104736328125	39.25821685791016	-564.6652221679688	-1632.1513671875	44.55204010009766	-505.0751647949219	-1533.910278320312	520.5259399414062	-289.0635986328125	-1505.912719726562	787.2556762695312	-241.2713317871094	-1600.107543945312	41.22368621826172	-322.5272827148438	-1529.50048828125	405.940185546875	-305.1918334960938	-1384.220336914062	47.49618911743164	-333.732177734375	-1433.77294921875	41.76859664916992	-385.2825317382812	-1493.999755859375	42.89079284667969	-281.905517578125	-1653.489868164062	36.7872428894043	-388.6804809570312	
2	0.01	-1632.464477539062	1060.1640625	-374.6168518066406	-1614.711059570312	1064.453247070312	-493.2908630371094	-1623.661499023438	1134.463745117188	-454.5614318847656	-1379.871704101562	1331.06591796875	-421.927001953125	-1629.908325195312	1259.010986328125	-452.9835815429688	-1579.297729492188	1523.132202148438	-455.4581604003906	-1409.017211914062	1448.469116210938	-426.6845397949219	-1655.086303710938	1381.316162109375	-389.6833801269531	-1581.842529296875	1483.072631835938	-566.9407958984375	-1485.114135742188	1486.2939453125	-608.4959716796875	-1501.705688476562	1366.596313476562	-688.8916015625	-1481.579956054688	1156.515014648438	-712.2259521484375	-1559.6904296875	1140.776245117188	-675.6046752929688	-1407.49462890625	917.9459838867188	-644.499267578125	-1420.711547851562	904.7727661132812	-728.4014282226562	-1459.471435546875	1049.36376953125	-723.5944213867188	-1413.471069335938	720.25634765625	-659.0849609375	-1410.173461914062	815.252685546875	-724.6348266601562	-1357.684692382812	824.8765869140625	-670.4074096679688	-1545.74609375	1494.386474609375	-277.3558654785156	-1573.232543945312	1432.522583007812	-211.0279846191406	-1593.346557617188	1151.377685546875	-165.4320526123047	-1612.941650390625	1142.576538085938	-258.0653686523438	-1448.259765625	937.2831420898438	-188.6468048095703	-1509.58154296875	923.7236328125	-128.8736572265625	-1567.563232421875	1083.481079101562	-147.7280578613281	-1431.106689453125	743.7794189453125	-187.8863525390625	-1411.28466796875	817.8296508789062	-166.3434448242188	-1469.48779296875	817.1152954101562	-122.710693359375	-1567.74755859375	1673.91943359375	-427.5216674804688	-1350.878662109375	1741.462890625	-443.3558349609375	-1388.10791015625	1739.298828125	-351.1204833984375	-1477.719116210938	1687.595336914062	-534.4411010742188	-1498.76025390625	995.478759765625	-618.5115356445312	-1549.252075195312	1015.685668945312	-253.1273956298828	-1449.108642578125	1057.125610351562	-278.7927551269531	-1403.908935546875	1034.56396484375	-555.1560668945312	-1494.481323242188	508.0728759765625	-568.0565795898438	-1485.19775390625	651.1428833007812	-600.6162109375	-1567.488647460938	38.71279525756836	-553.7864990234375	-1539.999877929688	286.9542541503906	-574.2598266601562	-1356.666259765625	47.01704406738281	-486.9028625488281	-1427.0458984375	43.05693435668945	-447.3748168945312	-1439.099365234375	39.25471878051758	-564.6712036132812	-1632.152465820312	44.53867721557617	-505.0751342773438	-1533.848876953125	520.5196533203125	-289.0700073242188	-1505.825561523438	787.321533203125	-241.3030242919922	-1600.10693359375	41.2335319519043	-322.529052734375	-1529.431396484375	405.9534301757812	-305.2002258300781	-1384.203002929688	47.48737335205078	-333.7240905761719	-1433.780883789062	41.76757049560547	-385.2840576171875	-1493.997192382812	42.8945198059082	-281.9113464355469	-1653.514892578125	36.82410430908203	-388.6939086914062	
3	0.02	-1632.531860351562	1060.170776367188	-374.5757751464844	-1614.8125	1064.445190429688	-493.257080078125	-1623.824951171875	1134.456909179688	-454.5382995605469	-1379.860107421875	1330.990112304688	-422.0215148925781	-1629.93994140625	1259.09716796875	-452.9079895019531	-1579.2861328125	1523.180419921875	-455.3717651367188	-1408.9462890625	1448.385131835938	-426.74267578125	-1655.068969726562	1381.348266601562	-389.6499328613281	-1581.896850585938	1483.16064453125	-566.8546752929688	-1485.148071289062	1486.31005859375	-608.5068969726562	-1502.010375976562	1366.617309570312	-688.9389038085938	-1482.209594726562	1156.454467773438	-712.080810546875	-1560.333984375	1140.918823242188	-675.4146728515625	-1409.212890625	917.5582275390625	-644.1254272460938	-1422.001831054688	904.5419311523438	-728.1552124023438	-1460.390625	1049.25146484375	-723.4121704101562	-1415.3662109375	720.0137329101562	-658.7509765625	-1411.65673828125	814.9722290039062	-724.3247680664062	-1362.745849609375	822.8617553710938	-668.8795776367188	-1545.631103515625	1494.293579101562	-277.3111572265625	-1573.0908203125	1432.405029296875	-210.9900970458984	-1593.296020507812	1151.24267578125	-165.5655059814453	-1612.8994140625	1142.505004882812	-258.18505859375	-1448.409790039062	937.08544921875	-188.9639282226562	-1509.745239257812	923.5353393554688	-129.1891632080078	-1567.562622070312	1083.320068359375	-147.9315185546875	-1431.177001953125	743.5382080078125	-188.2084350585938	-1411.340698242188	817.6052856445312	-166.6697387695312	-1469.581787109375	816.8402709960938	-123.0975189208984	-1567.545166015625	1673.9013671875	-427.370361328125	-1350.759155273438	1741.418090820312	-443.2449951171875	-1387.8818359375	1739.186279296875	-350.9866638183594	-1477.552124023438	1687.607055664062	-534.288330078125	-1498.914916992188	995.4803466796875	-618.5380249023438	-1549.163330078125	1015.686645507812	-253.1005554199219	-1449.1484375	1057.1025390625	-278.8744506835938	-1404.142944335938	1034.593627929688	-555.3271484375	-1494.509643554688	508.0739135742188	-568.091552734375	-1485.3798828125	651.16845703125	-600.6636962890625	-1567.491943359375	38.7114372253418	-553.7910766601562	-1540.029541015625	286.9488220214844	-574.2527465820312	-1356.676025390625	47.02596664428711	-486.9140014648438	-1427.053100585938	43.07712554931641	-447.3992004394531	-1439.093627929688	39.24944305419922	-564.6770629882812	-1632.156616210938	44.52490615844727	-505.0774841308594	-1533.76318359375	520.51123046875	-289.0762023925781	-1505.71142578125	787.3921508789062	-241.3443908691406	-1600.105834960938	41.24553680419922	-322.5305480957031	-1529.3447265625	405.9609680175781	-305.2051086425781	-1384.184204101562	47.47842025756836	-333.7157592773438	-1433.788208007812	41.76778411865234	-385.2865905761719	-1493.995849609375	42.898193359375	-281.9201354980469	-1653.5419921875	36.85529327392578	-388.7048034667969	
4	0.03	-1632.606323242188	1060.179443359375	-374.518310546875	-1614.944702148438	1064.439575195312	-493.2136535644531	-1624.006469726562	1134.451049804688	-454.5003051757812	-1379.852294921875	1330.903564453125	-422.1239929199219	-1629.979614257812	1259.196166992188	-452.8135986328125	-1579.268188476562	1523.24169921875	-455.2753295898438	-1408.872802734375	1448.28857421875	-426.8031311035156	-1655.044921875	1381.387817382812	-389.6007995605469	-1581.953979492188	1483.25830078125	-566.7556762695312	-1485.190307617188	1486.333251953125	-608.5177612304688	-1502.356811523438	1366.642578125	-688.9872436523438	-1482.921752929688	1156.386108398438	-711.9146728515625	-1561.060913085938	1141.075073242188	-675.2044067382812	-1411.167358398438	917.1163940429688	-643.6618041992188	-1423.422607421875	904.2860107421875	-727.8515625	-1461.411865234375	1049.125854492188	-723.1934814453125	-1417.472290039062	719.7647705078125	-658.3191528320312	-1413.3125	814.6672973632812	-723.9430541992188	-1368.473266601562	820.5411987304688	-667.09619140625	-1545.504516601562	1494.196044921875	-277.2578125	-1572.927856445312	1432.275268554688	-210.9416656494141	-1593.244995117188	1151.09228515625	-165.7159729003906	-1612.865234375	1142.424926757812	-258.32275390625	-1448.563354492188	936.8695678710938	-189.313232421875	-1509.898803710938	923.3262329101562	-129.5309753417969	-1567.555419921875	1083.143188476562	-148.1512756347656	-1431.251708984375	743.293212890625	-188.6006317138672	-1411.403198242188	817.3733520507812	-167.0393981933594	-1469.688720703125	816.5428466796875	-123.4948043823242	-1567.316650390625	1673.874633789062	-427.1952209472656	-1350.614379882812	1741.362182617188	-443.1165466308594	-1387.61865234375	1739.060180664062	-350.8182678222656	-1477.367553710938	1687.622924804688	-534.1146240234375	-1499.11181640625	995.48583984375	-618.56982421875	-1549.107543945312	1015.68798828125	-253.0918579101562	-1449.189819335938	1057.074096679688	-278.9684753417969	-1404.453369140625	1034.620483398438	-555.5409545898438	-1494.540649414062	508.0767211914062	-568.1337890625	-1485.59228515625	651.1974487304688	-600.7200927734375	-1567.4970703125	38.70854187011719	-553.7991943359375	-1540.053955078125	286.938720703125	-574.2440185546875	-1356.688720703125	47.03688430786133	-486.9296569824219	-1427.060180664062	43.1040153503418	-447.42724609375	-1439.088134765625	39.24264907836914	-564.6827392578125	-1632.1650390625	44.51206207275391	-505.0828247070312	-1533.651977539062	520.5013427734375	-289.0808410644531	-1505.569213867188	787.4614868164062	-241.3971252441406	-1600.104125976562	41.25834274291992	-322.5314636230469	-1529.241333007812	405.9604797363281	-305.20458984375	-1384.163696289062	47.46956253051758	-333.7073669433594	-1433.79443359375	41.76938247680664	-385.2902221679688	-1493.995849609375	42.90169525146484	-281.9315795898438	-1653.56689453125	36.87577056884766	-388.7111511230469	
